# Blender v3.6.4 OBJ File: ''
# www.blender.org
mtllib button.mtl
o Cylinder
v 0.000000 0.560933 -1.000000
v 0.000000 1.069046 -1.000000
v 0.195090 0.560933 -0.980785
v 0.195090 1.069046 -0.980785
v 0.382683 0.560933 -0.923880
v 0.382683 1.069046 -0.923880
v 0.555570 0.560933 -0.831470
v 0.555570 1.069046 -0.831470
v 0.707107 0.560933 -0.707107
v 0.707107 1.069046 -0.707107
v 0.831470 0.560933 -0.555570
v 0.831470 1.069046 -0.555570
v 0.923880 0.560933 -0.382683
v 0.923880 1.069046 -0.382683
v 0.980785 0.560933 -0.195090
v 0.980785 1.069046 -0.195090
v 1.000000 0.560933 0.000000
v 1.000000 1.069046 0.000000
v 0.980785 0.560933 0.195090
v 0.980785 1.069046 0.195090
v 0.923880 0.560933 0.382683
v 0.923880 1.069046 0.382683
v 0.831470 0.560933 0.555570
v 0.831470 1.069046 0.555570
v 0.707107 0.560933 0.707107
v 0.707107 1.069046 0.707107
v 0.555570 0.560933 0.831470
v 0.555570 1.069046 0.831470
v 0.382683 0.560933 0.923880
v 0.382683 1.069046 0.923880
v 0.195090 0.560933 0.980785
v 0.195090 1.069046 0.980785
v 0.000000 0.560933 1.000000
v 0.000000 1.069046 1.000000
v -0.195090 0.560933 0.980785
v -0.195090 1.069046 0.980785
v -0.382683 0.560933 0.923880
v -0.382683 1.069046 0.923880
v -0.555570 0.560933 0.831470
v -0.555570 1.069046 0.831470
v -0.707107 0.560933 0.707107
v -0.707107 1.069046 0.707107
v -0.831470 0.560933 0.555570
v -0.831470 1.069046 0.555570
v -0.923880 0.560933 0.382683
v -0.923880 1.069046 0.382683
v -0.980785 0.560933 0.195090
v -0.980785 1.069046 0.195090
v -1.000000 0.560933 0.000000
v -1.000000 1.069046 0.000000
v -0.980785 0.560933 -0.195090
v -0.980785 1.069046 -0.195090
v -0.923880 0.560933 -0.382683
v -0.923880 1.069046 -0.382683
v -0.831470 0.560933 -0.555570
v -0.831470 1.069046 -0.555570
v -0.707107 0.560933 -0.707107
v -0.707107 1.069046 -0.707107
v -0.555570 0.560933 -0.831470
v -0.555570 1.069046 -0.831470
v -0.382683 0.560933 -0.923880
v -0.382683 1.069046 -0.923880
v -0.195090 0.560933 -0.980785
v -0.195090 1.069046 -0.980785
v 0.000000 0.464700 -0.373355
v 0.072838 0.464700 -0.366181
v 0.142877 0.464700 -0.344935
v 0.207425 0.464700 -0.310433
v 0.264002 0.464700 -0.264002
v 0.310433 0.464700 -0.207425
v 0.344935 0.464700 -0.142877
v 0.366181 0.464700 -0.072838
v 0.373355 0.464700 -0.000000
v 0.366181 0.464700 0.072838
v 0.344935 0.464700 0.142877
v 0.310433 0.464700 0.207425
v 0.264002 0.464700 0.264002
v 0.207425 0.464700 0.310433
v 0.142877 0.464700 0.344935
v 0.072838 0.464700 0.366181
v 0.000000 0.464700 0.373355
v -0.072838 0.464700 0.366181
v -0.142877 0.464700 0.344935
v -0.207425 0.464700 0.310433
v -0.264002 0.464700 0.264002
v -0.310433 0.464700 0.207425
v -0.344935 0.464700 0.142877
v -0.366181 0.464700 0.072838
v -0.373355 0.464700 -0.000000
v -0.366181 0.464700 -0.072838
v -0.344935 0.464700 -0.142877
v -0.310433 0.464700 -0.207425
v -0.264002 0.464700 -0.264002
v -0.207425 0.464700 -0.310433
v -0.142877 0.464700 -0.344935
v -0.072838 0.464700 -0.366181
v 0.000000 0.207918 -0.373355
v 0.072838 0.207918 -0.366181
v 0.142877 0.207918 -0.344935
v 0.207425 0.207918 -0.310433
v 0.264002 0.207918 -0.264002
v 0.310433 0.207918 -0.207425
v 0.344935 0.207918 -0.142877
v 0.366181 0.207918 -0.072838
v 0.373355 0.207918 -0.000000
v 0.366181 0.207918 0.072838
v 0.344935 0.207918 0.142877
v 0.310433 0.207918 0.207425
v 0.264002 0.207918 0.264002
v 0.207425 0.207918 0.310433
v 0.142877 0.207918 0.344935
v 0.072838 0.207918 0.366181
v 0.000000 0.207918 0.373355
v -0.072838 0.207918 0.366181
v -0.142877 0.207918 0.344935
v -0.207425 0.207918 0.310433
v -0.264002 0.207918 0.264002
v -0.310433 0.207918 0.207425
v -0.344935 0.207918 0.142877
v -0.366181 0.207918 0.072838
v -0.373355 0.207918 -0.000000
v -0.366181 0.207918 -0.072838
v -0.344935 0.207918 -0.142877
v -0.310433 0.207918 -0.207425
v -0.264002 0.207918 -0.264002
v -0.207425 0.207918 -0.310433
v -0.142877 0.207918 -0.344935
v -0.072838 0.207918 -0.366181
v 0.000000 0.182069 -0.973085
v 0.189839 0.182069 -0.954387
v 0.372383 0.182069 -0.899013
v 0.540617 0.182069 -0.809090
v 0.688075 0.182069 -0.688075
v 0.809090 0.182069 -0.540617
v 0.899013 0.182069 -0.372383
v 0.954387 0.182069 -0.189839
v 0.973085 0.182069 -0.000000
v 0.954387 0.182069 0.189839
v 0.899013 0.182069 0.372383
v 0.809090 0.182069 0.540617
v 0.688075 0.182069 0.688075
v 0.540617 0.182069 0.809090
v 0.372383 0.182069 0.899013
v 0.189839 0.182069 0.954387
v 0.000000 0.182069 0.973085
v -0.189839 0.182069 0.954387
v -0.372383 0.182069 0.899013
v -0.540617 0.182069 0.809090
v -0.688075 0.182069 0.688075
v -0.809090 0.182069 0.540617
v -0.899013 0.182069 0.372383
v -0.954387 0.182069 0.189839
v -0.973085 0.182069 -0.000000
v -0.954387 0.182069 -0.189839
v -0.899013 0.182069 -0.372383
v -0.809090 0.182069 -0.540617
v -0.688075 0.182069 -0.688075
v -0.540617 0.182069 -0.809090
v -0.372383 0.182069 -0.899013
v -0.189839 0.182069 -0.954387
v 0.000000 -0.490040 -0.973085
v 0.189839 -0.490040 -0.954387
v 0.372383 -0.490040 -0.899013
v 0.540617 -0.490040 -0.809090
v 0.688075 -0.490040 -0.688075
v 0.809090 -0.490040 -0.540617
v 0.899013 -0.490040 -0.372383
v 0.954387 -0.490040 -0.189839
v 0.973085 -0.490040 -0.000000
v 0.954387 -0.490040 0.189839
v 0.899013 -0.490040 0.372383
v 0.809090 -0.490040 0.540617
v 0.688075 -0.490040 0.688075
v 0.540617 -0.490040 0.809090
v 0.372383 -0.490040 0.899013
v 0.189839 -0.490040 0.954387
v 0.000000 -0.490040 0.973085
v -0.189839 -0.490040 0.954387
v -0.372383 -0.490040 0.899013
v -0.540617 -0.490040 0.809090
v -0.688075 -0.490040 0.688075
v -0.809090 -0.490040 0.540617
v -0.899013 -0.490040 0.372383
v -0.954387 -0.490040 0.189839
v -0.973085 -0.490040 -0.000000
v -0.954387 -0.490040 -0.189839
v -0.899013 -0.490040 -0.372383
v -0.809090 -0.490040 -0.540617
v -0.688075 -0.490040 -0.688075
v -0.540617 -0.490040 -0.809090
v -0.372383 -0.490040 -0.899013
v -0.189839 -0.490040 -0.954387
vt 1.000000 0.500000
vt 1.000000 1.000000
vt 0.968750 1.000000
vt 0.968750 0.500000
vt 0.937500 1.000000
vt 0.937500 0.500000
vt 0.906250 1.000000
vt 0.906250 0.500000
vt 0.875000 1.000000
vt 0.875000 0.500000
vt 0.843750 1.000000
vt 0.843750 0.500000
vt 0.812500 1.000000
vt 0.812500 0.500000
vt 0.781250 1.000000
vt 0.781250 0.500000
vt 0.750000 1.000000
vt 0.750000 0.500000
vt 0.718750 1.000000
vt 0.718750 0.500000
vt 0.687500 1.000000
vt 0.687500 0.500000
vt 0.656250 1.000000
vt 0.656250 0.500000
vt 0.625000 1.000000
vt 0.625000 0.500000
vt 0.593750 1.000000
vt 0.593750 0.500000
vt 0.562500 1.000000
vt 0.562500 0.500000
vt 0.531250 1.000000
vt 0.531250 0.500000
vt 0.500000 1.000000
vt 0.500000 0.500000
vt 0.468750 1.000000
vt 0.468750 0.500000
vt 0.437500 1.000000
vt 0.437500 0.500000
vt 0.406250 1.000000
vt 0.406250 0.500000
vt 0.375000 1.000000
vt 0.375000 0.500000
vt 0.343750 1.000000
vt 0.343750 0.500000
vt 0.312500 1.000000
vt 0.312500 0.500000
vt 0.281250 1.000000
vt 0.281250 0.500000
vt 0.250000 1.000000
vt 0.250000 0.500000
vt 0.218750 1.000000
vt 0.218750 0.500000
vt 0.187500 1.000000
vt 0.187500 0.500000
vt 0.156250 1.000000
vt 0.156250 0.500000
vt 0.125000 1.000000
vt 0.125000 0.500000
vt 0.093750 1.000000
vt 0.093750 0.500000
vt 0.062500 1.000000
vt 0.062500 0.500000
vt 0.296822 0.485388
vt 0.250000 0.490000
vt 0.203178 0.485388
vt 0.158156 0.471731
vt 0.116663 0.449553
vt 0.080294 0.419706
vt 0.050447 0.383337
vt 0.028269 0.341844
vt 0.014612 0.296822
vt 0.010000 0.250000
vt 0.014612 0.203178
vt 0.028269 0.158156
vt 0.050447 0.116663
vt 0.080294 0.080294
vt 0.116663 0.050447
vt 0.158156 0.028269
vt 0.203178 0.014612
vt 0.250000 0.010000
vt 0.296822 0.014612
vt 0.341844 0.028269
vt 0.383337 0.050447
vt 0.419706 0.080294
vt 0.449553 0.116663
vt 0.471731 0.158156
vt 0.485388 0.203178
vt 0.490000 0.250000
vt 0.485388 0.296822
vt 0.471731 0.341844
vt 0.449553 0.383337
vt 0.419706 0.419706
vt 0.383337 0.449553
vt 0.341844 0.471731
vt 0.031250 1.000000
vt 0.031250 0.500000
vt 0.000000 1.000000
vt 0.000000 0.500000
vt 0.937500 0.500000
vt 0.968750 0.500000
vt 0.937500 0.500000
vt 0.968750 0.500000
vt 0.656250 0.500000
vt 0.687500 0.500000
vt 0.375000 0.500000
vt 0.406250 0.500000
vt 0.093750 0.500000
vt 0.125000 0.500000
vt 0.781250 0.500000
vt 0.812500 0.500000
vt 0.500000 0.500000
vt 0.531250 0.500000
vt 0.218750 0.500000
vt 0.250000 0.500000
vt 0.906250 0.500000
vt 0.625000 0.500000
vt 0.343750 0.500000
vt 0.062500 0.500000
vt 0.750000 0.500000
vt 0.468750 0.500000
vt 0.187500 0.500000
vt 0.875000 0.500000
vt 0.593750 0.500000
vt 0.312500 0.500000
vt 0.031250 0.500000
vt 0.718750 0.500000
vt 0.437500 0.500000
vt 0.156250 0.500000
vt 0.843750 0.500000
vt 0.562500 0.500000
vt 0.281250 0.500000
vt 1.000000 0.500000
vt 0.000000 0.500000
vt 0.906250 0.500000
vt 0.875000 0.500000
vt 0.875000 0.500000
vt 0.906250 0.500000
vt 0.093750 0.500000
vt 0.125000 0.500000
vt 0.500000 0.500000
vt 0.531250 0.500000
vt 0.062500 0.500000
vt 0.468750 0.500000
vt 0.031250 0.500000
vt 0.437500 0.500000
vt 0.843750 0.500000
vt 0.000000 0.500000
vt 0.406250 0.500000
vt 0.812500 0.500000
vt 0.375000 0.500000
vt 0.781250 0.500000
vt 0.343750 0.500000
vt 0.750000 0.500000
vt 0.312500 0.500000
vt 0.718750 0.500000
vt 0.281250 0.500000
vt 0.687500 0.500000
vt 0.250000 0.500000
vt 0.656250 0.500000
vt 0.218750 0.500000
vt 0.625000 0.500000
vt 0.187500 0.500000
vt 0.593750 0.500000
vt 0.156250 0.500000
vt 0.562500 0.500000
vt 1.000000 0.500000
vt 0.781250 0.500000
vt 0.750000 0.500000
vt 0.750000 0.500000
vt 0.781250 0.500000
vt 0.031250 0.500000
vt 0.062500 0.500000
vt 0.437500 0.500000
vt 0.468750 0.500000
vt 0.843750 0.500000
vt 0.000000 0.500000
vt 0.406250 0.500000
vt 0.812500 0.500000
vt 0.375000 0.500000
vt 0.343750 0.500000
vt 0.312500 0.500000
vt 0.718750 0.500000
vt 0.281250 0.500000
vt 0.687500 0.500000
vt 0.250000 0.500000
vt 0.656250 0.500000
vt 0.218750 0.500000
vt 0.625000 0.500000
vt 0.187500 0.500000
vt 0.593750 0.500000
vt 0.156250 0.500000
vt 0.562500 0.500000
vt 0.968750 0.500000
vt 1.000000 0.500000
vt 0.125000 0.500000
vt 0.531250 0.500000
vt 0.937500 0.500000
vt 0.093750 0.500000
vt 0.500000 0.500000
vt 0.750000 0.490000
vt 0.796822 0.485388
vt 0.841844 0.471731
vt 0.883337 0.449553
vt 0.919706 0.419706
vt 0.949553 0.383337
vt 0.971731 0.341844
vt 0.985388 0.296822
vt 0.990000 0.250000
vt 0.985388 0.203178
vt 0.971731 0.158156
vt 0.949553 0.116663
vt 0.919706 0.080294
vt 0.883337 0.050447
vt 0.841844 0.028269
vt 0.796822 0.014612
vt 0.750000 0.010000
vt 0.703178 0.014612
vt 0.658156 0.028269
vt 0.616663 0.050447
vt 0.580294 0.080294
vt 0.550447 0.116663
vt 0.528269 0.158156
vt 0.514612 0.203178
vt 0.510000 0.250000
vt 0.514612 0.296822
vt 0.528269 0.341844
vt 0.550447 0.383337
vt 0.580294 0.419706
vt 0.616663 0.449553
vt 0.658156 0.471731
vt 0.703178 0.485388
vt 0.312500 0.500000
vt 0.343750 0.500000
vt 0.718750 0.500000
vt 0.281250 0.500000
vt 0.687500 0.500000
vt 0.250000 0.500000
vt 0.656250 0.500000
vt 0.218750 0.500000
vt 0.625000 0.500000
vt 0.187500 0.500000
vt 0.593750 0.500000
vt 0.156250 0.500000
vt 0.562500 0.500000
vt 0.968750 0.500000
vt 1.000000 0.500000
vt 0.125000 0.500000
vt 0.531250 0.500000
vt 0.937500 0.500000
vt 0.093750 0.500000
vt 0.500000 0.500000
vt 0.906250 0.500000
vt 0.062500 0.500000
vt 0.468750 0.500000
vt 0.875000 0.500000
vt 0.031250 0.500000
vt 0.437500 0.500000
vt 0.843750 0.500000
vt 0.000000 0.500000
vt 0.406250 0.500000
vt 0.812500 0.500000
vt 0.375000 0.500000
vn 0.0980 0.0000 -0.9952
vn 0.2903 0.0000 -0.9569
vn 0.4714 0.0000 -0.8819
vn 0.6344 0.0000 -0.7730
vn 0.7730 0.0000 -0.6344
vn 0.8819 0.0000 -0.4714
vn 0.9569 0.0000 -0.2903
vn 0.9952 0.0000 -0.0980
vn 0.9952 0.0000 0.0980
vn 0.9569 0.0000 0.2903
vn 0.8819 0.0000 0.4714
vn 0.7730 0.0000 0.6344
vn 0.6344 0.0000 0.7730
vn 0.4714 0.0000 0.8819
vn 0.2903 0.0000 0.9569
vn 0.0980 0.0000 0.9952
vn -0.0980 0.0000 0.9952
vn -0.2903 0.0000 0.9569
vn -0.4714 0.0000 0.8819
vn -0.6344 0.0000 0.7730
vn -0.7730 0.0000 0.6344
vn -0.8819 0.0000 0.4714
vn -0.9569 0.0000 0.2903
vn -0.9952 0.0000 0.0980
vn -0.9952 0.0000 -0.0980
vn -0.9569 0.0000 -0.2903
vn -0.8819 0.0000 -0.4714
vn -0.7730 0.0000 -0.6344
vn -0.6344 0.0000 -0.7730
vn -0.4714 0.0000 -0.8819
vn 0.0000 1.0000 -0.0000
vn -0.2903 0.0000 -0.9569
vn -0.0980 0.0000 -0.9952
vn 0.0443 -0.9883 -0.1459
vn 0.1345 -0.9883 0.0719
vn -0.0967 -0.9883 0.1179
vn -0.0967 -0.9883 -0.1179
vn 0.1459 -0.9883 -0.0443
vn 0.0149 -0.9883 0.1518
vn -0.1518 -0.9883 -0.0149
vn 0.0719 -0.9883 -0.1345
vn 0.1179 -0.9883 0.0967
vn -0.1179 -0.9883 0.0967
vn -0.0719 -0.9883 -0.1345
vn 0.1518 -0.9883 -0.0149
vn -0.0149 -0.9883 0.1518
vn -0.1459 -0.9883 -0.0443
vn 0.0967 -0.9883 -0.1179
vn 0.0967 -0.9883 0.1179
vn -0.1345 -0.9883 0.0719
vn -0.0443 -0.9883 -0.1459
vn 0.1518 -0.9883 0.0149
vn -0.0443 -0.9883 0.1459
vn -0.1345 -0.9883 -0.0719
vn 0.1179 -0.9883 -0.0967
vn 0.0719 -0.9883 0.1345
vn -0.1459 -0.9883 0.0443
vn 0.0149 -0.9883 -0.1518
vn -0.0149 -0.9883 -0.1518
vn 0.1459 -0.9883 0.0443
vn -0.0719 -0.9883 0.1345
vn -0.1179 -0.9883 -0.0967
vn 0.1345 -0.9883 -0.0719
vn 0.0443 -0.9883 0.1459
vn -0.1518 -0.9883 0.0149
vn 0.0274 0.9991 -0.0334
vn -0.0126 0.9991 -0.0414
vn -0.0126 0.9991 0.0414
vn 0.0334 0.9991 -0.0274
vn -0.0042 0.9991 -0.0431
vn -0.0204 0.9991 0.0382
vn 0.0382 0.9991 -0.0204
vn -0.0274 0.9991 0.0334
vn 0.0414 0.9991 -0.0126
vn -0.0334 0.9991 0.0274
vn 0.0431 0.9991 -0.0042
vn -0.0382 0.9991 0.0204
vn 0.0431 0.9991 0.0042
vn -0.0414 0.9991 0.0126
vn 0.0414 0.9991 0.0126
vn -0.0431 0.9991 0.0042
vn 0.0382 0.9991 0.0204
vn -0.0431 0.9991 -0.0042
vn 0.0334 0.9991 0.0274
vn -0.0414 0.9991 -0.0126
vn 0.0274 0.9991 0.0334
vn -0.0382 0.9991 -0.0204
vn 0.0204 0.9991 0.0382
vn 0.0042 0.9991 -0.0431
vn -0.0334 0.9991 -0.0274
vn 0.0126 0.9991 0.0414
vn 0.0126 0.9991 -0.0414
vn -0.0274 0.9991 -0.0334
vn 0.0042 0.9991 0.0431
vn 0.0204 0.9991 -0.0382
vn -0.0204 0.9991 -0.0382
vn -0.0042 0.9991 0.0431
vn 0.0000 -1.0000 -0.0000
usemtl Material.002
s off
f 1/1/1 2/2/1 4/3/1 3/4/1
f 3/4/2 4/3/2 6/5/2 5/6/2
f 5/6/3 6/5/3 8/7/3 7/8/3
f 7/8/4 8/7/4 10/9/4 9/10/4
f 9/10/5 10/9/5 12/11/5 11/12/5
f 11/12/6 12/11/6 14/13/6 13/14/6
f 13/14/7 14/13/7 16/15/7 15/16/7
f 15/16/8 16/15/8 18/17/8 17/18/8
f 17/18/9 18/17/9 20/19/9 19/20/9
f 19/20/10 20/19/10 22/21/10 21/22/10
f 21/22/11 22/21/11 24/23/11 23/24/11
f 23/24/12 24/23/12 26/25/12 25/26/12
f 25/26/13 26/25/13 28/27/13 27/28/13
f 27/28/14 28/27/14 30/29/14 29/30/14
f 29/30/15 30/29/15 32/31/15 31/32/15
f 31/32/16 32/31/16 34/33/16 33/34/16
f 33/34/17 34/33/17 36/35/17 35/36/17
f 35/36/18 36/35/18 38/37/18 37/38/18
f 37/38/19 38/37/19 40/39/19 39/40/19
f 39/40/20 40/39/20 42/41/20 41/42/20
f 41/42/21 42/41/21 44/43/21 43/44/21
f 43/44/22 44/43/22 46/45/22 45/46/22
f 45/46/23 46/45/23 48/47/23 47/48/23
f 47/48/24 48/47/24 50/49/24 49/50/24
f 49/50/25 50/49/25 52/51/25 51/52/25
f 51/52/26 52/51/26 54/53/26 53/54/26
f 53/54/27 54/53/27 56/55/27 55/56/27
f 55/56/28 56/55/28 58/57/28 57/58/28
f 57/58/29 58/57/29 60/59/29 59/60/29
f 59/60/30 60/59/30 62/61/30 61/62/30
f 4/63/31 2/64/31 64/65/31 62/66/31 60/67/31 58/68/31 56/69/31 54/70/31 52/71/31 50/72/31 48/73/31 46/74/31 44/75/31 42/76/31 40/77/31 38/78/31 36/79/31 34/80/31 32/81/31 30/82/31 28/83/31 26/84/31 24/85/31 22/86/31 20/87/31 18/88/31 16/89/31 14/90/31 12/91/31 10/92/31 8/93/31 6/94/31
f 61/62/32 62/61/32 64/95/32 63/96/32
f 63/96/33 64/95/33 2/97/33 1/98/33
f 3/4/34 5/6/34 67/99/34 66/100/34
f 66/100/2 67/99/2 99/101/2 98/102/2
f 21/22/35 23/24/35 76/103/35 75/104/35
f 39/40/36 41/42/36 85/105/36 84/106/36
f 57/58/37 59/60/37 94/107/37 93/108/37
f 13/14/38 15/16/38 72/109/38 71/110/38
f 31/32/39 33/34/39 81/111/39 80/112/39
f 49/50/40 51/52/40 90/113/40 89/114/40
f 5/6/41 7/8/41 68/115/41 67/99/41
f 23/24/42 25/26/42 77/116/42 76/103/42
f 41/42/43 43/44/43 86/117/43 85/105/43
f 59/60/44 61/62/44 95/118/44 94/107/44
f 15/16/45 17/18/45 73/119/45 72/109/45
f 33/34/46 35/36/46 82/120/46 81/111/46
f 51/52/47 53/54/47 91/121/47 90/113/47
f 7/8/48 9/10/48 69/122/48 68/115/48
f 25/26/49 27/28/49 78/123/49 77/116/49
f 43/44/50 45/46/50 87/124/50 86/117/50
f 61/62/51 63/96/51 96/125/51 95/118/51
f 17/18/52 19/20/52 74/126/52 73/119/52
f 35/36/53 37/38/53 83/127/53 82/120/53
f 53/54/54 55/56/54 92/128/54 91/121/54
f 9/10/55 11/12/55 70/129/55 69/122/55
f 27/28/56 29/30/56 79/130/56 78/123/56
f 45/46/57 47/48/57 88/131/57 87/124/57
f 1/1/58 3/4/58 66/100/58 65/132/58
f 63/96/59 1/98/59 65/133/59 96/125/59
f 19/20/60 21/22/60 75/104/60 74/126/60
f 37/38/61 39/40/61 84/106/61 83/127/61
f 55/56/62 57/58/62 93/108/62 92/128/62
f 11/12/63 13/14/63 71/110/63 70/129/63
f 29/30/64 31/32/64 80/112/64 79/130/64
f 47/48/65 49/50/65 89/114/65 88/131/65
f 100/134/66 101/135/66 133/136/66 132/137/66
f 93/108/29 94/107/29 126/138/29 125/139/29
f 80/112/16 81/111/16 113/140/16 112/141/16
f 67/99/3 68/115/3 100/134/3 99/101/3
f 94/107/30 95/118/30 127/142/30 126/138/30
f 81/111/17 82/120/17 114/143/17 113/140/17
f 68/115/4 69/122/4 101/135/4 100/134/4
f 95/118/32 96/125/32 128/144/32 127/142/32
f 82/120/18 83/127/18 115/145/18 114/143/18
f 69/122/5 70/129/5 102/146/5 101/135/5
f 96/125/33 65/133/33 97/147/33 128/144/33
f 83/127/19 84/106/19 116/148/19 115/145/19
f 70/129/6 71/110/6 103/149/6 102/146/6
f 84/106/20 85/105/20 117/150/20 116/148/20
f 71/110/7 72/109/7 104/151/7 103/149/7
f 85/105/21 86/117/21 118/152/21 117/150/21
f 72/109/8 73/119/8 105/153/8 104/151/8
f 86/117/22 87/124/22 119/154/22 118/152/22
f 73/119/9 74/126/9 106/155/9 105/153/9
f 87/124/23 88/131/23 120/156/23 119/154/23
f 74/126/10 75/104/10 107/157/10 106/155/10
f 88/131/24 89/114/24 121/158/24 120/156/24
f 75/104/11 76/103/11 108/159/11 107/157/11
f 89/114/25 90/113/25 122/160/25 121/158/25
f 76/103/12 77/116/12 109/161/12 108/159/12
f 90/113/26 91/121/26 123/162/26 122/160/26
f 77/116/13 78/123/13 110/163/13 109/161/13
f 91/121/27 92/128/27 124/164/27 123/162/27
f 78/123/14 79/130/14 111/165/14 110/163/14
f 65/132/1 66/100/1 98/102/1 97/166/1
f 92/128/28 93/108/28 125/139/28 124/164/28
f 79/130/15 80/112/15 112/141/15 111/165/15
f 136/167/8 137/168/8 169/169/8 168/170/8
f 127/142/67 128/144/67 160/171/67 159/172/67
f 114/143/68 115/145/68 147/173/68 146/174/68
f 101/135/69 102/146/69 134/175/69 133/136/69
f 128/144/70 97/147/70 129/176/70 160/171/70
f 115/145/71 116/148/71 148/177/71 147/173/71
f 102/146/72 103/149/72 135/178/72 134/175/72
f 116/148/73 117/150/73 149/179/73 148/177/73
f 103/149/74 104/151/74 136/167/74 135/178/74
f 117/150/75 118/152/75 150/180/75 149/179/75
f 104/151/76 105/153/76 137/168/76 136/167/76
f 118/152/77 119/154/77 151/181/77 150/180/77
f 105/153/78 106/155/78 138/182/78 137/168/78
f 119/154/79 120/156/79 152/183/79 151/181/79
f 106/155/80 107/157/80 139/184/80 138/182/80
f 120/156/81 121/158/81 153/185/81 152/183/81
f 107/157/82 108/159/82 140/186/82 139/184/82
f 121/158/83 122/160/83 154/187/83 153/185/83
f 108/159/84 109/161/84 141/188/84 140/186/84
f 122/160/85 123/162/85 155/189/85 154/187/85
f 109/161/86 110/163/86 142/190/86 141/188/86
f 123/162/87 124/164/87 156/191/87 155/189/87
f 110/163/88 111/165/88 143/192/88 142/190/88
f 97/166/89 98/102/89 130/193/89 129/194/89
f 124/164/90 125/139/90 157/195/90 156/191/90
f 111/165/91 112/141/91 144/196/91 143/192/91
f 98/102/92 99/101/92 131/197/92 130/193/92
f 125/139/93 126/138/93 158/198/93 157/195/93
f 112/141/94 113/140/94 145/199/94 144/196/94
f 99/101/95 100/134/95 132/137/95 131/197/95
f 126/138/96 127/142/96 159/172/96 158/198/96
f 113/140/97 114/143/97 146/174/97 145/199/97
f 161/200/98 162/201/98 163/202/98 164/203/98 165/204/98 166/205/98 167/206/98 168/207/98 169/208/98 170/209/98 171/210/98 172/211/98 173/212/98 174/213/98 175/214/98 176/215/98 177/216/98 178/217/98 179/218/98 180/219/98 181/220/98 182/221/98 183/222/98 184/223/98 185/224/98 186/225/98 187/226/98 188/227/98 189/228/98 190/229/98 191/230/98 192/231/98
f 150/180/22 151/181/22 183/232/22 182/233/22
f 137/168/9 138/182/9 170/234/9 169/169/9
f 151/181/23 152/183/23 184/235/23 183/232/23
f 138/182/10 139/184/10 171/236/10 170/234/10
f 152/183/24 153/185/24 185/237/24 184/235/24
f 139/184/11 140/186/11 172/238/11 171/236/11
f 153/185/25 154/187/25 186/239/25 185/237/25
f 140/186/12 141/188/12 173/240/12 172/238/12
f 154/187/26 155/189/26 187/241/26 186/239/26
f 141/188/13 142/190/13 174/242/13 173/240/13
f 155/189/27 156/191/27 188/243/27 187/241/27
f 142/190/14 143/192/14 175/244/14 174/242/14
f 129/194/1 130/193/1 162/245/1 161/246/1
f 156/191/28 157/195/28 189/247/28 188/243/28
f 143/192/15 144/196/15 176/248/15 175/244/15
f 130/193/2 131/197/2 163/249/2 162/245/2
f 157/195/29 158/198/29 190/250/29 189/247/29
f 144/196/16 145/199/16 177/251/16 176/248/16
f 131/197/3 132/137/3 164/252/3 163/249/3
f 158/198/30 159/172/30 191/253/30 190/250/30
f 145/199/17 146/174/17 178/254/17 177/251/17
f 132/137/4 133/136/4 165/255/4 164/252/4
f 159/172/32 160/171/32 192/256/32 191/253/32
f 146/174/18 147/173/18 179/257/18 178/254/18
f 133/136/5 134/175/5 166/258/5 165/255/5
f 160/171/33 129/176/33 161/259/33 192/256/33
f 147/173/19 148/177/19 180/260/19 179/257/19
f 134/175/6 135/178/6 167/261/6 166/258/6
f 148/177/20 149/179/20 181/262/20 180/260/20
f 135/178/7 136/167/7 168/170/7 167/261/7
f 149/179/21 150/180/21 182/233/21 181/262/21
