# Blender 3.6.4
# www.blender.org
mtllib monitor.mtl
o Cube
v -1.000000 0.982313 0.617126
v -1.000000 2.358370 0.688029
v -1.000000 0.641980 -1.000000
v -1.000000 2.641980 -1.000000
v 1.000000 0.982313 0.617126
v 1.000000 2.358370 0.688029
v 1.000000 0.641980 -1.000000
v 1.000000 2.641980 -1.000000
v -0.452388 0.715238 -0.553028
v -0.452388 0.869201 0.178541
v 0.452388 0.715238 -0.553028
v 0.452388 0.869201 0.178541
v -0.452388 0.045734 -0.404569
v -0.452388 0.051844 0.343000
v 0.452388 0.045734 -0.404569
v 0.452388 0.051844 0.343000
v -0.961540 -0.015739 -0.824780
v -0.961540 -0.002751 0.764160
v 0.961540 -0.015739 -0.824780
v 0.961540 -0.002751 0.764160
v -0.826988 0.832031 -1.048608
v -0.826988 2.486006 -1.048608
v -0.826988 0.832031 -0.943532
v -0.826988 2.486006 -0.943532
v 0.826988 0.832031 -1.048608
v 0.826988 2.486006 -1.048608
v 0.826988 0.832031 -0.943532
v 0.826988 2.486006 -0.943532
vn -1.0000 -0.0000 -0.0000
vn -0.0000 -0.0000 -1.0000
vn 1.0000 -0.0000 -0.0000
vn -0.0000 -0.0515 0.9987
vn -0.0000 -0.9868 0.1617
vn -0.0000 0.9862 0.1657
vn -0.0000 0.1973 0.9804
vn -0.0372 -0.9779 0.2058
vn 0.0372 -0.9779 0.2058
vn -0.0000 -0.9683 0.2497
vn 0.1133 0.9935 -0.0081
vn -0.0000 -0.2165 -0.9763
vn -0.0000 -1.0000 0.0082
vn -0.1133 0.9935 -0.0081
vn -0.0000 0.9917 0.1286
vn -0.0000 0.9895 -0.1447
vn -0.0000 -0.0000 1.0000
vn -0.0000 1.0000 -0.0000
vn -0.0000 -1.0000 -0.0000
vt 0.166705 0.000115
vt 0.333295 0.000115
vt 0.333295 0.166705
vt 0.166705 0.166705
vt 0.333295 0.333295
vt 0.166705 0.333295
vt 0.333295 0.499885
vt 0.166705 0.499885
vt 0.333295 0.666474
vt 0.166705 0.666474
vt 0.499885 0.333295
vt 0.499885 0.499885
vt 0.000115 0.333295
vt 0.000115 0.499885
vt 0.666705 0.000115
vt 0.833295 0.000115
vt 0.833295 0.166705
vt 0.666705 0.166705
vt 0.833295 0.333295
vt 0.666705 0.333295
vt 0.833295 0.499885
vt 0.666705 0.499885
vt 0.833295 0.666474
vt 0.666705 0.666474
vt 0.500115 0.333295
vt 0.500115 0.499885
vt 0.999885 0.333295
vt 0.999885 0.499885
s 0
usemtl Material.002
f 1/1/1 2/2/1 4/3/1 3/4/1
f 3/4/2 4/3/2 8/5/2 7/6/2
f 7/6/3 8/5/3 6/7/3 5/8/3
f 5/8/4 6/7/4 2/9/4 1/10/4
f 3/4/5 7/6/5 11/6/5 9/4/5
f 8/5/6 4/11/6 2/12/6 6/7/6
f 12/8/7 10/10/7 14/10/7 16/8/7
f 1/1/8 3/4/8 9/4/8 10/1/8
f 7/6/9 5/8/9 12/8/9 11/6/9
f 5/8/10 1/10/10 10/10/10 12/8/10
f 15/6/11 16/8/11 20/8/11 19/6/11
f 9/4/12 11/6/12 15/6/12 13/4/12
f 11/6/3 12/8/3 16/8/3 15/6/3
f 10/1/1 9/4/1 13/4/1 14/1/1
f 17/13/13 19/6/13 20/8/13 18/14/13
f 14/1/14 13/4/14 17/4/14 18/1/14
f 16/8/15 14/10/15 18/10/15 20/8/15
f 13/4/16 15/6/16 19/6/16 17/4/16
f 21/15/3 22/16/3 24/17/3 23/18/3
f 23/18/2 24/17/2 28/19/2 27/20/2
f 27/20/1 28/19/1 26/21/1 25/22/1
f 25/22/17 26/21/17 22/23/17 21/24/17
f 23/25/18 27/20/18 25/22/18 21/26/18
f 28/19/19 24/27/19 22/28/19 26/21/19
