# Blender 3.6.4
# www.blender.org
mtllib portal.mtl
o Torus
v -0.055516 0.720768 -0.082107
v 0.180707 0.787076 -0.060359
v 0.064687 1.230978 -0.177977
v -0.179116 1.175544 -0.221705
v -0.218047 0.880900 -0.297882
v 0.248973 1.176333 -0.510282
v -0.248770 1.208622 -0.747780
v -0.073686 0.854693 -0.557533
v 0.187208 0.924225 -0.531018
v 0.069663 1.519500 -0.619219
v -0.180384 1.506678 -0.689869
v 0.186200 1.224497 -0.921527
v -0.077192 1.118594 -0.906398
v 0.213915 1.750609 -0.868447
v 0.250457 1.875278 -1.061906
v -0.175485 1.662641 -1.165428
v 0.074141 1.639984 -1.215897
v 0.121160 1.971195 -0.795194
v 0.000000 2.063505 -1.260575
v -0.063705 2.016287 -0.756592
v -0.251059 2.349720 -0.928364
v 0.200059 2.355579 -1.119635
v -0.195617 2.355868 -1.125515
v 0.249982 2.676942 -0.699859
v -0.121160 2.386870 -0.683814
v 0.066637 2.737589 -1.011925
v 0.077204 2.478152 -0.591437
v -0.215697 2.631315 -0.626441
v 0.192820 2.999169 -0.591398
v -0.067325 2.666239 -0.342302
v -0.248021 2.900613 -0.581309
v -0.072600 3.035101 -0.710470
v 0.181796 2.791474 -0.210165
v -0.191187 3.168357 -0.146747
v 0.069365 3.235374 -0.086019
v 0.248595 3.067007 0.144759
v -0.215308 2.867238 -0.002361
v -0.067672 2.734912 0.098061
v 0.212511 2.710945 0.562543
v -0.247546 2.877612 0.602069
v -0.134410 3.118266 0.471119
v 0.066321 3.145535 0.494154
v 0.191066 2.870692 0.782306
v -0.181293 2.676163 0.442827
v 0.066546 2.611183 0.438154
v -0.073410 2.720196 1.015938
v -0.215995 2.410072 0.778506
v -0.248431 2.348824 1.027653
v 0.193509 2.434143 1.094265
v 0.250440 2.236931 0.999844
v -0.064300 2.178448 0.744214
v 0.122360 2.137641 0.788078
v -0.057361 2.204120 1.243720
v 0.214671 1.786235 0.889709
v 0.185089 1.847215 1.186900
v -0.216646 1.849011 0.879823
v -0.187151 1.792994 1.165865
v 0.071773 1.441245 1.147789
v -0.066386 1.668116 0.694469
v 0.119970 1.532084 0.660621
v -0.248838 1.303675 0.846508
v -0.126799 1.248015 0.995206
v 0.247407 1.245647 0.796994
v -0.213620 1.256336 0.535279
v 0.212294 1.115653 0.275931
v 0.060545 1.300554 0.346372
v -0.119970 1.267334 0.358731
v 0.074853 0.930195 0.711121
v 0.249894 0.971982 0.349129
v -0.248198 0.952479 0.332595
v -0.076517 0.811691 0.452058
v -0.097256 1.929630 -1.000000
v 0.097256 1.933004 -1.000000
v -0.098114 2.124713 -0.980785
v 0.096398 2.128087 -0.980785
v -0.098939 2.312299 -0.923880
v 0.095573 2.315672 -0.923880
v -0.099700 2.485179 -0.831470
v 0.094812 2.488553 -0.831470
v -0.100366 2.636710 -0.707107
v 0.094146 2.640083 -0.707107
v -0.100913 2.761068 -0.555570
v 0.093599 2.764441 -0.555570
v -0.101320 2.853475 -0.382683
v 0.093192 2.856848 -0.382683
v -0.101570 2.910378 -0.195090
v 0.092942 2.913751 -0.195090
v -0.101655 2.929592 0.000000
v 0.092857 2.932965 0.000000
v -0.101570 2.910378 0.195090
v 0.092942 2.913751 0.195090
v -0.101320 2.853475 0.382683
v 0.093192 2.856848 0.382683
v -0.100913 2.761068 0.555570
v 0.093599 2.764441 0.555570
v -0.100366 2.636710 0.707107
v 0.094146 2.640083 0.707107
v -0.099700 2.485179 0.831470
v 0.094812 2.488553 0.831470
v -0.098939 2.312299 0.923880
v 0.095573 2.315672 0.923880
v -0.098114 2.124713 0.980785
v 0.096398 2.128087 0.980785
v -0.097256 1.929630 1.000000
v 0.097256 1.933004 1.000000
v -0.096398 1.734547 0.980785
v 0.098114 1.737921 0.980785
v -0.095573 1.546962 0.923880
v 0.098939 1.550335 0.923880
v -0.094812 1.374081 0.831470
v 0.099700 1.377455 0.831470
v -0.094146 1.222551 0.707107
v 0.100366 1.225924 0.707107
v -0.093599 1.098192 0.555570
v 0.100913 1.101566 0.555570
v -0.093192 1.005786 0.382683
v 0.101320 1.009159 0.382683
v -0.092942 0.948883 0.195090
v 0.101570 0.952256 0.195090
v -0.092857 0.929669 0.000000
v 0.101655 0.933042 0.000000
v -0.092942 0.948883 -0.195090
v 0.101570 0.952256 -0.195090
v -0.093192 1.005786 -0.382683
v 0.101320 1.009159 -0.382683
v -0.093599 1.098192 -0.555570
v 0.100913 1.101566 -0.555570
v -0.094146 1.222551 -0.707107
v 0.100366 1.225924 -0.707107
v -0.094812 1.374081 -0.831470
v 0.099700 1.377455 -0.831470
v -0.095573 1.546962 -0.923880
v 0.098939 1.550335 -0.923880
v -0.096398 1.734547 -0.980785
v 0.098114 1.737921 -0.980785
vn 0.9564 0.2842 0.0666
vn -0.7892 0.5974 0.1421
vn -0.5292 -0.8218 -0.2113
vn 0.9709 -0.2334 -0.0546
vn -0.2771 0.8056 0.5237
vn 0.2744 -0.7656 -0.5819
vn 0.9599 -0.2210 -0.1724
vn 0.2781 -0.9225 -0.2677
vn -0.2009 0.7995 0.5660
vn 0.1693 -0.5390 -0.8251
vn 0.9775 -0.1320 -0.1647
vn 0.8998 0.2691 0.3434
vn -0.7266 -0.3979 -0.5601
vn 0.7958 0.1389 0.5894
vn -0.2760 0.1866 0.9429
vn -0.8329 0.0849 0.5468
vn -0.9771 -0.0351 -0.2097
vn 0.3054 -0.1820 0.9347
vn -0.8456 -0.2261 0.4835
vn 0.1801 0.3247 -0.9285
vn 0.1048 -0.3630 0.9259
vn -0.3217 -0.2302 0.9184
vn -0.4487 0.5237 -0.7241
vn 0.0665 -0.7774 0.6255
vn -0.7269 0.4491 -0.5196
vn 0.7938 -0.5584 0.2411
vn 0.3554 0.7421 -0.5683
vn -0.9530 -0.1578 0.2587
vn 0.0609 -0.7793 0.6237
vn -0.7096 0.6375 -0.3000
vn 0.2782 0.8945 -0.3501
vn 0.9746 0.2041 -0.0926
vn -0.9907 -0.1271 0.0487
vn 0.8324 -0.5025 0.2334
vn -0.1826 0.9475 -0.2624
vn 0.5875 0.7992 0.1268
vn -0.5629 -0.8264 -0.0158
vn 0.6209 -0.7767 -0.1056
vn -0.1418 -0.9469 -0.2885
vn -0.1500 0.9772 0.1505
vn -0.5118 -0.8029 -0.3055
vn -0.9592 -0.2788 -0.0464
vn -0.2503 -0.9374 -0.2422
vn 0.1478 0.7468 0.6484
vn -0.1748 0.7856 0.5936
vn -0.7813 -0.4473 -0.4353
vn -0.7883 0.3866 0.4787
vn 0.3602 0.5437 0.7580
vn 0.7342 -0.3454 -0.5845
vn 0.1672 0.4025 0.9000
vn -0.6016 0.3068 0.7375
vn -0.7138 0.0939 0.6941
vn 0.4545 0.1772 -0.8729
vn -0.9664 -0.0435 0.2534
vn -0.3665 -0.3148 0.8756
vn -0.9903 0.0659 -0.1221
vn 0.9935 0.0748 -0.0856
vn -0.8037 0.4416 -0.3988
vn 0.6261 -0.5044 0.5947
vn 0.9738 0.1964 -0.1146
vn -0.3775 -0.7387 0.5585
vn 0.6392 -0.7356 0.2242
vn -0.1881 0.9734 -0.1307
vn -0.1969 0.9713 -0.1335
vn 0.9700 -0.2362 -0.0572
vn 0.4279 0.8994 0.0894
vn -0.9901 -0.1365 -0.0318
vn -0.7249 -0.5681 -0.3897
vn -0.9706 0.1953 0.1408
vn 0.2635 -0.7644 -0.5884
vn -0.9726 -0.1366 -0.1881
vn 0.7811 0.5186 0.3479
vn 0.4838 0.4842 0.7290
vn -0.2160 -0.4513 -0.8658
vn 0.7841 -0.2039 -0.5862
vn 0.2683 0.3230 0.9076
vn -0.4270 0.2128 0.8789
vn -0.2083 -0.1386 -0.9682
vn 0.6716 -0.0185 -0.7407
vn -0.9625 -0.0123 -0.2710
vn 0.5644 0.0117 -0.8254
vn -0.5338 0.0331 -0.8449
vn 0.9873 -0.0648 0.1447
vn 0.6868 -0.2190 0.6930
vn -0.7772 -0.4122 0.4755
vn -0.1126 0.3537 -0.9286
vn 0.9805 0.0814 -0.1789
vn 0.7737 0.4071 -0.4854
vn 0.9115 0.2670 -0.3128
vn -0.9500 0.1702 -0.2618
vn -0.7859 -0.4121 0.4610
vn 0.7556 0.6445 -0.1166
vn -0.4160 -0.8505 0.3218
vn -0.7035 -0.7023 0.1090
vn 0.3831 -0.9126 0.1426
vn 0.9845 -0.1660 -0.0564
vn -0.9796 0.2010 0.0043
vn -0.2701 0.9574 0.1024
vn 0.7513 0.6086 0.2552
vn -0.8722 0.4746 0.1186
vn 0.9777 0.1440 0.1527
vn -0.6525 0.5752 0.4933
vn 0.1002 0.1557 -0.9827
vn -0.6932 -0.5179 -0.5013
vn -0.1567 -0.5383 -0.8281
vn 0.0608 -0.5886 -0.8062
vn 0.9898 -0.0455 -0.1352
vn -0.2277 -0.3253 -0.9178
vn 0.4118 0.1363 0.9010
vn -0.4422 -0.1589 -0.8827
vn -0.9906 -0.0232 -0.1347
vn 0.9016 0.0548 0.4291
vn 0.0650 -0.1137 0.9914
vn -0.7415 0.0681 -0.6675
vn -0.1287 -0.1451 0.9810
vn 0.9710 -0.0508 0.2335
vn 0.8782 0.0952 -0.4686
vn -0.7297 -0.5647 0.3856
vn -0.8834 0.0804 -0.4616
vn -0.7918 -0.2606 0.5523
vn 0.7904 -0.2734 0.5482
vn -0.4215 0.4541 -0.7849
vn 0.0476 -0.6487 0.7595
vn -0.0278 0.6750 -0.7373
vn 0.4028 0.6989 -0.5911
vn -0.1698 0.6461 -0.7441
vn 0.7908 -0.5203 0.3223
vn 0.5158 0.6402 -0.5692
vn 0.3023 -0.9327 0.1966
vn -0.9688 0.2041 -0.1407
vn -0.3270 0.9380 -0.1150
vn -0.9863 0.1531 -0.0613
vn -0.6712 -0.7347 0.0987
vn 0.7553 0.6505 -0.0803
vn -0.7293 -0.6828 0.0426
vn 0.0017 -0.0980 0.9952
vn 0.0050 -0.2903 0.9569
vn 0.0082 -0.4714 0.8819
vn 0.0110 -0.6343 0.7730
vn 0.0134 -0.7729 0.6344
vn 0.0153 -0.8818 0.4714
vn 0.0166 -0.9568 0.2903
vn 0.0173 -0.9950 0.0980
vn 0.0173 -0.9950 -0.0980
vn 0.0166 -0.9568 -0.2903
vn 0.0153 -0.8818 -0.4714
vn 0.0134 -0.7729 -0.6344
vn 0.0110 -0.6343 -0.7730
vn 0.0082 -0.4714 -0.8819
vn 0.0050 -0.2903 -0.9569
vn 0.0017 -0.0980 -0.9952
vn -0.0017 0.0980 -0.9952
vn -0.0050 0.2903 -0.9569
vn -0.0082 0.4714 -0.8819
vn -0.0110 0.6343 -0.7730
vn -0.0134 0.7729 -0.6344
vn -0.0153 0.8818 -0.4714
vn -0.0166 0.9568 -0.2903
vn -0.0173 0.9950 -0.0980
vn -0.0173 0.9950 0.0980
vn -0.0166 0.9568 0.2903
vn -0.0153 0.8818 0.4714
vn -0.0134 0.7729 0.6344
vn -0.0110 0.6343 0.7730
vn -0.0082 0.4714 0.8819
vn -1.0000 -0.0044 -0.0000
vn -0.0050 0.2903 0.9569
vn -0.0017 0.0980 0.9952
vn 1.0000 0.0044 -0.0000
vt 0.526995 0.273756
vt 0.555339 0.365938
vt 0.475977 0.367640
vt 0.075815 0.306770
vt 0.215239 0.249848
vt 0.213925 0.363167
vt 0.222242 0.305179
vt 0.303779 0.284684
vt 0.315919 0.327520
vt 0.411058 0.281381
vt 0.416408 0.327041
vt 0.000177 0.223725
vt 0.000177 0.320413
vt 0.299842 0.246813
vt 0.407568 0.237848
vt 0.084606 0.229291
vt 0.367521 0.195880
vt 0.439862 0.181515
vt 0.555339 0.194137
vt 0.259743 0.197283
vt 0.610855 0.167959
vt 0.644183 0.232901
vt 0.024852 0.162491
vt 0.161470 0.130441
vt 0.518506 0.084150
vt 0.055694 0.109841
vt 0.357654 0.098175
vt 0.428062 0.132492
vt 0.333274 0.159781
vt 0.627217 0.094496
vt 0.666371 0.158680
vt 0.000177 0.111229
vt 0.306984 0.063423
vt 0.241702 0.133434
vt 0.028465 0.047755
vt 0.212512 0.058202
vt 0.581805 0.027674
vt 0.422033 0.056480
vt 0.111210 0.081493
vt 0.666371 0.048792
vt 0.253357 0.015918
vt 0.360660 0.010027
vt 0.465598 0.007528
vt 0.111210 0.008016
vt 0.360153 0.624216
vt 0.465598 0.642506
vt 0.360660 0.662488
vt 0.111210 0.654227
vt 0.214978 0.606541
vt 0.166726 0.666371
vt 0.555339 0.596459
vt 0.633109 0.599941
vt 0.581805 0.663491
vt 0.666371 0.646661
vt 0.277758 0.624765
vt 0.029538 0.650787
vt 0.082201 0.606507
vt 0.000177 0.590928
vt 0.302609 0.566151
vt 0.409505 0.591310
vt 0.027500 0.527920
vt 0.111210 0.553294
vt 0.194533 0.535400
vt 0.424426 0.541422
vt 0.610855 0.520602
vt 0.311358 0.517764
vt 0.246670 0.483300
vt 0.449400 0.423861
vt 0.555339 0.476907
vt 0.499823 0.526278
vt 0.198694 0.425966
vt 0.277758 0.432582
vt 0.356422 0.452718
vt 0.111210 0.400794
vt 0.111210 0.484104
vt 0.055694 0.382662
vt 0.027181 0.454394
vt 0.360551 0.395999
vt 0.301254 0.372345
vt 0.000177 0.389988
vt 0.636653 0.309111
vt 0.029538 0.003847
vt 0.666371 0.000177
vt 0.253357 0.660212
vt 0.666371 0.452138
vt 0.666371 0.521975
vt 0.610855 0.436654
vt 0.408888 0.486237
vt 0.646027 0.382148
vt 0.666726 0.000177
vt 0.999823 0.000177
vt 0.999823 0.020996
vt 0.666726 0.020996
vt 0.999823 0.041814
vt 0.666726 0.041814
vt 0.999823 0.062633
vt 0.666726 0.062633
vt 0.999823 0.083452
vt 0.666726 0.083452
vt 0.999823 0.104270
vt 0.666726 0.104270
vt 0.999823 0.125089
vt 0.666726 0.125089
vt 0.999823 0.145907
vt 0.666726 0.145907
vt 0.999823 0.166726
vt 0.666726 0.166726
vt 0.999823 0.187544
vt 0.666726 0.187544
vt 0.999823 0.208363
vt 0.666726 0.208363
vt 0.999823 0.229181
vt 0.666726 0.229181
vt 0.999823 0.250000
vt 0.666726 0.250000
vt 0.999823 0.270819
vt 0.666726 0.270819
vt 0.999823 0.291637
vt 0.666726 0.291637
vt 0.999823 0.312456
vt 0.666726 0.312456
vt 0.999823 0.333274
vt 0.666726 0.333274
vt 0.999823 0.354093
vt 0.666726 0.354093
vt 0.999823 0.374911
vt 0.666726 0.374911
vt 0.999823 0.395730
vt 0.666726 0.395730
vt 0.999823 0.416548
vt 0.666726 0.416548
vt 0.999823 0.437367
vt 0.666726 0.437367
vt 0.999823 0.458185
vt 0.666726 0.458185
vt 0.999823 0.479004
vt 0.666726 0.479004
vt 0.999823 0.499823
vt 0.666726 0.499823
vt 0.999823 0.520641
vt 0.666726 0.520641
vt 0.999823 0.541460
vt 0.666726 0.541460
vt 0.999823 0.562278
vt 0.666726 0.562278
vt 0.999823 0.583097
vt 0.666726 0.583097
vt 0.999823 0.603915
vt 0.666726 0.603915
vt 0.999823 0.624734
vt 0.666726 0.624734
vt 0.006292 0.872255
vt 0.000177 0.841514
vt 0.000177 0.810171
vt 0.006292 0.779430
vt 0.018287 0.750472
vt 0.035700 0.724411
vt 0.057863 0.702248
vt 0.083924 0.684835
vt 0.112881 0.672840
vt 0.143622 0.666726
vt 0.174966 0.666726
vt 0.205706 0.672840
vt 0.234664 0.684835
vt 0.260725 0.702248
vt 0.282888 0.724411
vt 0.300301 0.750472
vt 0.312296 0.779430
vt 0.318410 0.810171
vt 0.318410 0.841514
vt 0.312296 0.872255
vt 0.300301 0.901212
vt 0.282888 0.927273
vt 0.260725 0.949436
vt 0.234664 0.966850
vt 0.205707 0.978844
vt 0.174966 0.984959
vt 0.143622 0.984959
vt 0.112881 0.978844
vt 0.083924 0.966850
vt 0.057863 0.949436
vt 0.035700 0.927273
vt 0.018287 0.901212
vt 0.999823 0.645552
vt 0.666726 0.645552
vt 0.999823 0.666371
vt 0.666726 0.666371
vt 0.324880 0.872255
vt 0.336874 0.901212
vt 0.354288 0.927273
vt 0.376451 0.949436
vt 0.402512 0.966850
vt 0.431469 0.978844
vt 0.462210 0.984959
vt 0.493553 0.984959
vt 0.524294 0.978844
vt 0.553252 0.966850
vt 0.579313 0.949436
vt 0.601476 0.927273
vt 0.618889 0.901212
vt 0.630884 0.872255
vt 0.636998 0.841514
vt 0.636998 0.810171
vt 0.630884 0.779430
vt 0.618889 0.750472
vt 0.601476 0.724411
vt 0.579313 0.702248
vt 0.553252 0.684835
vt 0.524294 0.672841
vt 0.493553 0.666726
vt 0.462210 0.666726
vt 0.431469 0.672841
vt 0.402512 0.684835
vt 0.376451 0.702248
vt 0.354288 0.724411
vt 0.336874 0.750472
vt 0.324880 0.779430
vt 0.318765 0.810171
vt 0.318765 0.841514
s 0
usemtl Material.001
f 6/1/1 65/2/1 69/3/1
f 4/4/2 7/5/2 70/6/2
f 5/7/3 8/8/3 1/9/3
f 9/10/4 6/1/4 2/11/4
f 10/12/5 4/4/5 3/13/5
f 13/14/6 12/15/6 8/8/6
f 12/15/7 6/1/7 9/10/7
f 9/10/8 2/11/8 1/9/8 8/8/8
f 10/12/9 11/16/9 4/4/9
f 17/17/10 12/15/10 13/14/10
f 12/15/11 15/18/11 6/1/11
f 15/18/12 14/19/12 6/1/12
f 16/20/13 13/14/13 7/5/13
f 14/19/14 18/21/14 10/22/14
f 10/12/15 20/23/15 11/16/15
f 11/16/16 21/24/16 7/5/16
f 21/24/17 16/20/17 7/5/17
f 24/25/18 18/21/18 14/19/18
f 25/26/19 21/24/19 20/23/19
f 26/27/20 22/28/20 19/29/20
f 27/30/21 20/31/21 18/21/21
f 27/32/22 25/26/22 20/23/22
f 32/33/23 26/27/23 23/34/23
f 30/35/24 25/26/24 27/32/24
f 31/36/25 32/33/25 23/34/25
f 33/37/26 27/30/26 24/25/26
f 32/33/27 29/38/27 26/27/27
f 28/39/28 31/36/28 21/24/28
f 33/37/29 30/40/29 27/30/29
f 31/36/30 34/41/30 32/33/30
f 32/33/31 35/42/31 29/38/31
f 36/43/32 24/25/32 29/38/32
f 37/44/33 31/36/33 28/39/33
f 36/43/34 33/37/34 24/25/34
f 34/41/35 35/42/35 32/33/35
f 42/45/36 36/46/36 35/47/36
f 37/48/37 40/49/37 31/50/37
f 39/51/38 45/52/38 33/53/38
f 45/52/39 38/54/39 33/53/39
f 41/55/40 42/45/40 35/47/40
f 38/56/41 44/57/41 37/48/41
f 44/57/42 40/49/42 37/48/42
f 45/58/43 44/57/43 38/56/43
f 46/59/44 43/60/44 42/45/44
f 46/59/45 42/45/45 41/55/45
f 51/61/46 47/62/46 44/57/46
f 48/63/47 46/59/47 40/49/47
f 46/59/48 49/64/48 43/60/48
f 39/51/49 52/65/49 45/52/49
f 53/66/50 49/64/50 46/59/50
f 48/63/51 53/66/51 46/59/51
f 57/67/52 53/66/52 48/63/52
f 63/68/53 54/69/53 50/70/53
f 48/63/54 61/71/54 57/67/54
f 62/72/55 58/73/55 57/67/55
f 64/74/56 61/71/56 56/75/56
f 63/68/57 65/2/57 54/69/57
f 67/76/58 64/74/58 59/77/58
f 68/78/59 63/68/59 58/73/59
f 69/3/60 65/2/60 63/68/60
f 71/79/61 68/78/61 62/72/61
f 68/78/62 2/11/62 69/3/62
f 3/13/63 67/76/63 66/80/63
f 3/13/64 4/4/64 67/76/64
f 2/11/65 6/1/65 69/3/65
f 65/2/66 6/1/66 3/81/66
f 70/6/67 7/5/67 5/7/67
f 8/8/68 5/7/68 7/5/68 13/14/68
f 4/4/69 11/16/69 7/5/69
f 8/8/70 12/15/70 9/10/70
f 48/63/71 40/49/71 44/57/71 47/62/71
f 6/1/72 10/22/72 3/81/72
f 6/1/73 14/19/73 10/22/73
f 16/20/74 17/17/74 13/14/74
f 17/17/75 15/18/75 12/15/75
f 18/21/76 20/31/76 10/22/76
f 20/23/77 21/24/77 11/16/77
f 16/20/78 19/29/78 17/17/78
f 17/17/79 22/28/79 15/18/79
f 21/24/80 23/34/80 16/20/80
f 19/29/81 22/28/81 17/17/81
f 16/20/82 23/34/82 19/29/82
f 15/18/83 24/25/83 14/19/83
f 24/25/84 27/30/84 18/21/84
f 25/26/85 28/39/85 21/24/85
f 23/34/86 26/27/86 19/29/86
f 22/28/87 24/25/87 15/18/87
f 26/27/88 29/38/88 22/28/88
f 22/28/89 29/38/89 24/25/89
f 21/24/90 31/36/90 23/34/90
f 25/26/91 30/35/91 28/39/91
f 35/42/92 36/43/92 29/38/92
f 30/35/93 37/44/93 28/39/93
f 30/35/94 38/82/94 37/44/94
f 33/37/95 38/83/95 30/40/95
f 36/46/96 39/51/96 33/53/96
f 31/50/97 40/49/97 34/84/97
f 34/84/98 41/55/98 35/47/98
f 42/45/99 43/60/99 36/46/99
f 34/84/100 40/49/100 41/55/100
f 36/46/101 43/60/101 49/64/101 50/70/101
f 40/49/102 46/59/102 41/55/102
f 59/85/103 51/86/103 52/65/103 60/87/103
f 36/46/104 50/70/104 39/51/104
f 45/58/105 51/61/105 44/57/105
f 52/65/106 51/86/106 45/52/106
f 50/70/107 54/69/107 39/51/107
f 39/51/108 54/69/108 52/65/108
f 53/66/109 55/88/109 49/64/109
f 51/61/110 56/75/110 47/62/110
f 47/62/111 56/75/111 48/63/111
f 49/64/112 55/88/112 50/70/112
f 53/66/113 58/73/113 55/88/113
f 51/61/114 59/77/114 56/75/114
f 57/67/115 58/73/115 53/66/115
f 55/88/116 63/68/116 50/70/116
f 54/69/117 60/87/117 52/65/117
f 71/79/118 62/72/118 61/71/118 70/6/118
f 56/75/119 61/71/119 48/63/119
f 57/67/120 61/71/120 62/72/120
f 58/73/121 63/68/121 55/88/121
f 59/77/122 64/74/122 56/75/122
f 62/72/123 68/78/123 58/73/123
f 54/69/124 65/2/124 60/87/124
f 60/87/125 66/89/125 59/85/125
f 66/80/126 67/76/126 59/77/126
f 68/78/127 69/3/127 63/68/127
f 65/2/128 66/89/128 60/87/128
f 2/11/129 68/78/129 71/79/129 1/9/129
f 64/74/130 70/6/130 61/71/130
f 67/76/131 4/4/131 64/74/131
f 64/74/132 4/4/132 70/6/132
f 70/6/133 1/9/133 71/79/133
f 65/2/134 3/81/134 66/89/134
f 70/6/135 5/7/135 1/9/135
f 72/90/136 73/91/136 75/92/136 74/93/136
f 74/93/137 75/92/137 77/94/137 76/95/137
f 76/95/138 77/94/138 79/96/138 78/97/138
f 78/97/139 79/96/139 81/98/139 80/99/139
f 80/99/140 81/98/140 83/100/140 82/101/140
f 82/101/141 83/100/141 85/102/141 84/103/141
f 84/103/142 85/102/142 87/104/142 86/105/142
f 86/105/143 87/104/143 89/106/143 88/107/143
f 88/107/144 89/106/144 91/108/144 90/109/144
f 90/109/145 91/108/145 93/110/145 92/111/145
f 92/111/146 93/110/146 95/112/146 94/113/146
f 94/113/147 95/112/147 97/114/147 96/115/147
f 96/115/148 97/114/148 99/116/148 98/117/148
f 98/117/149 99/116/149 101/118/149 100/119/149
f 100/119/150 101/118/150 103/120/150 102/121/150
f 102/121/151 103/120/151 105/122/151 104/123/151
f 104/123/152 105/122/152 107/124/152 106/125/152
f 106/125/153 107/124/153 109/126/153 108/127/153
f 108/127/154 109/126/154 111/128/154 110/129/154
f 110/129/155 111/128/155 113/130/155 112/131/155
f 112/131/156 113/130/156 115/132/156 114/133/156
f 114/133/157 115/132/157 117/134/157 116/135/157
f 116/135/158 117/134/158 119/136/158 118/137/158
f 118/137/159 119/136/159 121/138/159 120/139/159
f 120/139/160 121/138/160 123/140/160 122/141/160
f 122/141/161 123/140/161 125/142/161 124/143/161
f 124/143/162 125/142/162 127/144/162 126/145/162
f 126/145/163 127/144/163 129/146/163 128/147/163
f 128/147/164 129/146/164 131/148/164 130/149/164
f 130/149/165 131/148/165 133/150/165 132/151/165
f 75/152/166 73/153/166 135/154/166 133/155/166 131/156/166 129/157/166 127/158/166 125/159/166 123/160/166 121/161/166 119/162/166 117/163/166 115/164/166 113/165/166 111/166/166 109/167/166 107/168/166 105/169/166 103/170/166 101/171/166 99/172/166 97/173/166 95/174/166 93/175/166 91/176/166 89/177/166 87/178/166 85/179/166 83/180/166 81/181/166 79/182/166 77/183/166
f 132/151/167 133/150/167 135/184/167 134/185/167
f 134/185/168 135/184/168 73/186/168 72/187/168
f 72/188/169 74/189/169 76/190/169 78/191/169 80/192/169 82/193/169 84/194/169 86/195/169 88/196/169 90/197/169 92/198/169 94/199/169 96/200/169 98/201/169 100/202/169 102/203/169 104/204/169 106/205/169 108/206/169 110/207/169 112/208/169 114/209/169 116/210/169 118/211/169 120/212/169 122/213/169 124/214/169 126/215/169 128/216/169 130/217/169 132/218/169 134/219/169
