# Blender 3.6.4
# www.blender.org
o Cube
v -0.155810 2.933368 -2.185586
v -0.128414 1.131089 -2.185586
v -0.155810 2.933368 2.185586
v -0.128414 1.131089 2.185586
v 0.165594 2.988075 1.898305
v 0.165594 2.988075 -1.743342
v 0.165594 0.800969 -1.743342
v 0.165594 0.800969 1.872477
v -0.034245 0.933906 0.723164
v 0.036202 0.786397 0.723164
v 0.036202 0.786397 -0.826473
v -0.032288 0.929809 -0.826473
v -0.057208 0.150608 0.722003
v 0.015418 0.130887 0.724070
v 0.015736 0.147309 -0.825340
v -0.054872 0.166483 -0.827350
v -0.080716 -0.021322 1.194850
v 0.036737 -0.053216 1.198193
v 0.037252 -0.026657 -1.307576
v -0.076938 0.004352 -1.310826
v 0.096920 2.988075 1.898305
v 0.096920 2.988075 -1.743342
v 0.096920 0.800969 -1.743342
v 0.096920 0.800969 1.872477
v -0.128414 1.131089 -2.185586
v -0.128414 1.131089 2.185586
v -0.155810 2.933368 2.185586
v -0.155810 2.933368 -2.185586
v 0.157043 3.248763 -2.185586
v 0.165594 3.186068 -2.068475
v 0.165594 3.186068 2.109511
v 0.157043 3.248763 2.185586
v 0.165594 0.515460 2.022485
v 0.153237 0.541335 2.185586
v 0.156376 0.534761 2.081404
v 0.157043 3.248763 2.185586
v 0.165594 3.186068 2.109511
v 0.152105 0.543706 -2.185586
v 0.165594 0.515460 -2.007544
v 0.155240 0.537140 -2.076828
v 0.165594 3.186068 -2.068475
v 0.157043 3.248763 -2.185586
v 0.055835 2.988075 1.898305
v 0.055835 2.988075 -1.743342
v 0.055835 0.800969 -1.743342
v 0.055835 0.800969 1.872477
vn -0.0000 1.0000 -0.0000
vn -0.9024 -0.4310 -0.0000
vn 1.0000 -0.0000 -0.0000
vn 0.2569 0.9127 -0.3178
vn -0.7100 0.7042 -0.0000
vn -0.0000 0.0118 -0.9999
vn 0.0137 -0.0006 -0.9999
vn -0.0142 0.0003 0.9999
vn -0.9996 0.0294 -0.0013
vn 0.9995 -0.0318 -0.0001
vn -0.2618 -0.9651 -0.0103
vn 0.2371 0.9092 0.3424
vn -0.9908 0.1352 -0.0001
vn 0.9929 0.1187 0.0015
vn -0.0000 -0.0000 1.0000
vn -0.0000 -1.0000 -0.0000
vn -0.9999 -0.0152 -0.0000
vn 0.9908 0.1351 -0.0000
vn -0.9024 -0.4309 -0.0000
vn 0.9961 -0.0021 0.0879
vn 0.9972 -0.0018 -0.0750
vn -0.0000 -0.0000 -1.0000
vt 0.624214 0.500000
vt 0.618498 0.506698
vt 0.125000 0.500000
vt 0.125000 0.750000
vt 0.375000 0.740672
vt 0.367162 0.744042
vt 0.264975 0.666360
vt 0.264975 0.577732
vt 0.366196 0.506220
vt 0.375000 0.510183
vt 0.600445 0.525293
vt 0.401032 0.525293
vt 0.401032 0.732092
vt 0.600445 0.733570
vt 0.618498 0.745649
vt 0.618498 0.745649
vt 0.206738 0.577732
vt 0.631651 0.500000
vt 0.875000 0.500000
vt 0.875000 0.750000
vt 0.631651 0.750000
vt 0.624214 0.750000
vt 0.205074 0.666360
vt 0.375000 0.000000
vt 0.625000 0.000000
vt 0.625000 0.250000
vt 0.375000 0.250000
vt 0.375000 1.000000
vt 0.625000 1.000000
vt 0.363530 0.500000
vt 0.366196 0.506220
vt 0.364492 0.750000
vt 0.368779 0.745271
vt 0.625000 0.756651
vt 0.375000 0.760508
vt 0.367810 0.505080
vt 0.375000 0.488530
vt 0.625000 0.493349
s 0
f 29/1/1 30/2/1 41/2/1 42/1/1
f 2/3/1 4/4/1 26/4/1 25/3/1
f 33/5/2 35/6/2 10/7/2 11/8/2 40/9/2 39/10/2
f 39/10/3 41/2/3 30/2/3 6/11/3 7/12/3 8/13/3 5/14/3 31/15/3 37/15/3 33/5/3
f 31/16/3 5/14/3 6/11/3 30/2/3
f 16/17/4 15/8/4 19/8/4 20/17/4
f 29/18/5 1/19/5 3/20/5 32/21/5
f 5/14/6 8/13/6 24/13/6 21/14/6
f 31/15/1 32/22/1 36/22/1 37/15/1
f 12/17/7 11/8/7 15/8/7 16/17/7
f 10/7/8 9/23/8 13/23/8 14/7/8
f 9/23/9 12/17/9 16/17/9 13/23/9
f 11/8/10 10/7/10 14/7/10 15/8/10
f 18/7/11 17/23/11 20/17/11 19/8/11
f 14/7/12 13/23/12 17/23/12 18/7/12
f 13/23/13 16/17/13 20/17/13 17/23/13
f 15/8/14 14/7/14 18/7/14 19/8/14
f 23/12/15 22/11/15 44/11/15 45/12/15
f 7/12/15 6/11/15 22/11/15 23/12/15
f 8/13/1 7/12/1 23/12/1 24/13/1
f 6/11/16 5/14/16 21/14/16 22/11/16
f 26/24/17 27/25/17 28/26/17 25/27/17
f 3/20/1 1/19/1 28/19/1 27/20/1
f 1/26/1 2/27/1 25/27/1 28/26/1
f 4/28/1 3/29/1 27/29/1 26/28/1
f 29/18/18 32/21/18 31/16/18 30/2/18
f 2/3/2 38/30/2 40/31/2 11/8/2 12/17/2 9/23/2 10/7/2 35/6/2 34/32/2 4/4/2
f 33/5/19 34/33/19 35/6/19
f 36/34/20 34/35/20 33/5/20 37/15/20
f 34/35/15 36/34/15 32/34/15 3/29/15 4/28/15
f 38/36/2 39/10/2 40/9/2
f 41/2/21 39/10/21 38/37/21 42/38/21
f 2/27/22 1/26/22 29/38/22 42/38/22 38/37/22
f 43/14/3 46/13/3 45/12/3 44/11/3
f 24/13/1 23/12/1 45/12/1 46/13/1
f 22/11/16 21/14/16 43/14/16 44/11/16
f 21/14/6 24/13/6 46/13/6 43/14/6
